HIERARCHY
ROOT joint_0
{
	OFFSET 0.000000 0.000000 0.000000
	CHANNELS 6 Xposition Yposition Zposition Zrotation Yrotation Xrotation 
	JOINT joint_1
	{
		OFFSET 8.185791 -2.713684 100.414917
		CHANNELS 3 Zrotation Yrotation Xrotation
		JOINT joint_2
		{
			OFFSET -4.376465 -1.111145 91.934082
			CHANNELS 3 Zrotation Yrotation Xrotation
			JOINT joint_3
			{
				OFFSET -6.985840 -1.054016 91.669922
				CHANNELS 3 Zrotation Yrotation Xrotation
				JOINT joint_4
				{
					OFFSET 0.150391 -4.451904 123.526001
					CHANNELS 3 Zrotation Yrotation Xrotation
					JOINT joint_5
					{
						OFFSET 19.754150 -8.123901 80.916992
						CHANNELS 3 Zrotation Yrotation Xrotation
						End Site
						{
							OFFSET 0.000000 0.000000 0.000000
						}
					}
				}
				JOINT joint_6
				{
					OFFSET -6.477539 -28.517334 68.237061
					CHANNELS 3 Zrotation Yrotation Xrotation
					JOINT joint_7
					{
						OFFSET -20.564453 -115.426208 -21.139038
						CHANNELS 3 Zrotation Yrotation Xrotation
						JOINT joint_8
						{
							OFFSET 18.981934 -19.826172 -267.898926
							CHANNELS 3 Zrotation Yrotation Xrotation
							JOINT joint_9
							{
								OFFSET 11.562744 -19.325867 -235.478027
								CHANNELS 3 Zrotation Yrotation Xrotation
								End Site
								{
									OFFSET 0.000000 0.000000 0.000000
								}
							}
						}
					}
				}
				JOINT joint_10
				{
					OFFSET 7.033936 23.504700 70.088989
					CHANNELS 3 Zrotation Yrotation Xrotation
					JOINT joint_11
					{
						OFFSET 36.629639 112.486816 -14.036987
						CHANNELS 3 Zrotation Yrotation Xrotation
						JOINT joint_12
						{
							OFFSET 41.355225 -7.048523 -266.019897
							CHANNELS 3 Zrotation Yrotation Xrotation
							JOINT joint_13
							{
								OFFSET 5.858887 29.785156 -234.603027
								CHANNELS 3 Zrotation Yrotation Xrotation
								End Site
								{
									OFFSET 0.000000 0.000000 0.000000
								}
							}
						}
					}
				}
			}
		}
	}
	JOINT joint_14
	{
		OFFSET -8.917725 -79.985535 -99.035034
		CHANNELS 3 Zrotation Yrotation Xrotation
		JOINT joint_15
		{
			OFFSET -32.739502 -31.478882 -502.570984
			CHANNELS 3 Zrotation Yrotation Xrotation
			JOINT joint_16
			{
				OFFSET 7.393066 -29.352966 -399.008011
				CHANNELS 3 Zrotation Yrotation Xrotation
				JOINT joint_17
				{
					OFFSET 178.013916 -26.060303 -71.875002
					CHANNELS 3 Zrotation Yrotation Xrotation
					End Site
					{
						OFFSET 0.000000 0.000000 0.000000
					}
				}
			}
		}
	}
	JOINT joint_18
	{
		OFFSET 1.900879 81.159851 -98.481018
		CHANNELS 3 Zrotation Yrotation Xrotation
		JOINT joint_19
		{
			OFFSET -15.120850 31.602051 -503.400024
			CHANNELS 3 Zrotation Yrotation Xrotation
			JOINT joint_20
			{
				OFFSET -16.653076 23.887695 -399.091988
				CHANNELS 3 Zrotation Yrotation Xrotation
				JOINT joint_21
				{
					OFFSET 179.618164 -1.217651 -72.592001
					CHANNELS 3 Zrotation Yrotation Xrotation
					End Site
					{
						OFFSET 0.000000 0.000000 0.000000
					}
				}
			}
		}
	}
}
MOTION
Frames: 12
Frame Time: 0.016667
-2793.801270 739.799561 1100.717041 -2.360552 2.664329 -0.655255 3.057231 0.407800 -2.552189 3.206669 -0.192670 0.688783 3.105874 -0.004716 -0.638036 -0.249088 -2.798562 -0.077831 0.000000 0.000000 0.000000 0.209707 3.743833 1.425904 -0.198657 3.596442 2.771311 0.760239 -9.798470 2.489725 0.000000 0.000000 0.000000 0.608072 7.519628 6.461112 -2.460100 6.463694 10.462508 -4.689924 -50.136764 -27.686671 0.000000 0.000000 0.000000 1.956186 -7.037226 0.021314 0.514885 13.768539 2.261553 1.903677 -5.355537 -0.026056 0.000000 0.000000 0.000000 3.485690 -3.971695 0.549032 4.474714 11.685013 0.917476 3.724410 -4.387729 1.447110 0.000000 0.000000 0.000000 
-2787.018311 739.712891 1101.552002 -2.569764 2.268364 -0.526968 3.600294 1.361069 -2.382882 3.720667 -0.270875 0.680074 3.621363 0.092868 -0.632877 -0.294721 -2.596535 0.214534 0.000000 0.000000 0.000000 0.297089 4.577346 0.633541 -0.240813 4.187065 3.486961 0.793308 -11.604638 1.950723 0.000000 0.000000 0.000000 0.662967 6.842011 6.562249 -2.772694 6.047206 11.456519 -4.942676 -61.578570 -30.768635 0.000000 0.000000 0.000000 1.853235 -8.002483 0.066506 0.129046 17.566916 2.117829 1.848482 -6.706998 -0.250560 0.000000 0.000000 0.000000 3.287839 -4.931662 0.128710 4.537620 15.449415 1.971918 3.740792 -4.732480 1.434880 0.000000 0.000000 0.000000 
-2778.849121 739.159485 1102.339966 -2.540628 1.690186 -0.349309 4.117436 2.264798 -2.286837 4.212741 -0.384938 0.665543 4.114849 0.201816 -0.645115 -0.337511 -2.132881 0.594324 0.000000 0.000000 0.000000 0.213325 5.447303 -0.088254 -0.301880 4.808942 4.134302 0.802287 -13.219030 1.524050 0.000000 0.000000 0.000000 0.733667 5.970783 6.336130 -2.858809 5.592230 12.629193 -5.138476 -72.147129 -33.666874 0.000000 0.000000 0.000000 1.674222 -8.529356 0.097129 -0.280837 21.050865 1.904037 1.690019 -7.700012 -0.463175 0.000000 0.000000 0.000000 3.010026 -5.437266 -0.216372 4.469783 18.760455 2.811214 3.669165 -4.671596 1.390211 0.000000 0.000000 0.000000 
-2768.295410 737.356934 1103.128052 -2.288992 1.057148 -0.086205 4.533937 2.769090 -2.534611 4.625884 -0.514338 0.717492 4.520034 0.307806 -0.712583 -0.379364 -1.333182 1.068194 0.000000 0.000000 0.000000 -0.127688 6.333291 -0.444215 -0.412354 5.548203 4.305645 0.817228 -14.631778 1.697911 0.000000 0.000000 0.000000 0.875112 5.419344 6.401062 -2.452786 5.500115 14.111698 -5.159040 -81.434257 -37.452193 0.000000 0.000000 0.000000 1.406445 -8.486049 0.135277 -0.674448 23.749112 1.562933 1.458605 -8.257624 -0.639066 0.000000 0.000000 0.000000 2.687887 -5.151535 -0.429149 4.243534 20.769225 3.233871 3.453875 -4.298348 1.297428 0.000000 0.000000 0.000000 
-2755.776611 734.652710 1103.879028 -1.823623 0.279966 0.265740 4.896448 3.044244 -3.072607 4.998827 -0.653915 0.824141 4.878686 0.423530 -0.805851 -0.437763 -0.206616 1.665587 0.000000 0.000000 0.000000 -0.638165 7.257513 -0.586300 -0.550606 6.359752 4.201479 0.830654 -15.880684 2.253839 0.000000 0.000000 0.000000 1.043508 5.054741 6.644550 -1.430857 5.582793 15.896684 174.947631 -88.894534 137.824210 0.000000 0.000000 0.000000 1.036722 -7.950225 0.132295 -1.100763 25.988950 1.174892 1.148911 -8.550912 -0.805254 0.000000 0.000000 0.000000 2.285417 -4.220188 -0.578878 3.851774 21.940722 3.391400 3.068325 -3.768448 1.145081 0.000000 0.000000 0.000000 
-2742.481689 731.830017 1104.673950 -1.072501 -0.387803 0.592429 5.201542 3.092106 -3.562642 5.321723 -0.760894 0.928305 5.190424 0.496317 -0.889436 -0.518674 0.912664 2.277759 0.000000 0.000000 0.000000 -1.291426 8.235167 -0.676968 -0.692634 7.181700 4.026670 0.830003 -17.027516 2.852060 0.000000 0.000000 0.000000 1.276718 4.494546 6.822464 -0.095592 5.450633 17.671489 174.866859 -79.580317 133.792902 0.000000 0.000000 0.000000 0.681157 -7.236571 0.090100 -1.482053 27.742926 0.834191 0.905766 -8.600921 -0.909610 0.000000 0.000000 0.000000 1.820661 -3.357460 -0.650235 3.394532 22.975077 3.401701 2.634036 -3.172908 0.977425 0.000000 0.000000 0.000000 
-2729.028564 729.357422 1105.620972 0.082730 -0.738923 0.828296 5.435968 2.807572 -3.781603 5.580790 -0.802894 1.006400 5.446818 0.501472 -0.960993 -0.608320 1.835857 2.812279 0.000000 0.000000 0.000000 -2.151431 9.316829 -0.817865 -0.826804 8.008223 3.882265 0.810633 -18.182767 3.323400 0.000000 0.000000 0.000000 1.636104 3.596740 6.906477 0.884068 5.043095 19.236755 174.324844 -71.861893 131.956575 0.000000 0.000000 0.000000 0.428883 -6.531202 0.000736 -1.750046 28.915075 0.641413 0.882920 -8.463584 -0.903177 0.000000 0.000000 0.000000 1.287724 -3.055823 -0.619966 2.926442 24.280384 3.310301 2.236731 -2.501546 0.826416 0.000000 0.000000 0.000000 
-2714.970947 726.945312 1106.689941 1.617772 -0.878083 1.014030 5.603349 2.191991 -3.873265 5.778862 -0.786913 1.055295 5.649941 0.449054 -1.020008 -0.716126 2.683696 3.337075 0.000000 0.000000 0.000000 -3.223390 10.501780 -0.950343 -0.957224 8.865169 3.690237 0.778492 -19.331515 3.801817 0.000000 0.000000 0.000000 2.118138 2.635690 6.984100 1.530096 4.443806 20.839532 173.430561 -65.500020 131.604472 0.000000 0.000000 0.000000 0.239169 -5.715350 -0.112598 -1.936683 29.543418 0.583068 1.051963 -8.194796 -0.805882 0.000000 0.000000 0.000000 0.675731 -3.050914 -0.485734 2.406020 25.608910 3.092501 1.839305 -1.728843 0.678921 0.000000 0.000000 0.000000 
-2700.994141 724.738098 1107.637939 3.277722 -0.895114 1.097633 5.718559 1.516327 -3.852092 5.915419 -0.728436 1.056695 5.797201 0.357976 -1.037824 -0.851834 3.377954 3.871068 0.000000 0.000000 0.000000 -4.165915 11.570999 -1.044178 -1.049649 9.622826 3.571951 0.734096 -20.104653 4.065950 0.000000 0.000000 0.000000 2.531004 1.727218 7.043473 2.151377 3.647636 22.100226 172.385598 -61.025008 131.160139 0.000000 0.000000 0.000000 0.056551 -4.949035 -0.109214 -2.108200 29.974551 0.559068 1.272234 -7.787574 -0.670080 0.000000 0.000000 0.000000 0.049905 -3.301531 -0.251295 1.901313 27.101333 2.875540 1.500675 -1.014198 0.555628 0.000000 0.000000 0.000000 
-2687.544434 722.846252 1108.281006 4.949914 -0.794523 0.996928 5.782058 0.870725 -3.622745 5.978602 -0.620792 1.013007 5.871306 0.232538 -1.012470 -1.001422 3.892009 4.377308 0.000000 0.000000 0.000000 -4.717288 12.387584 -1.100224 -1.078950 10.232650 3.657995 0.686926 -20.230476 3.954407 0.000000 0.000000 0.000000 2.723546 0.972630 7.083417 3.051620 2.661705 22.711353 171.292801 -58.687967 129.039504 0.000000 0.000000 0.000000 -0.168391 -4.324464 0.146206 -2.310591 30.292429 0.500007 1.432489 -7.189465 -0.529505 0.000000 0.000000 0.000000 -0.546665 -3.892320 0.129499 1.472976 29.046276 2.769354 1.307820 -0.413740 0.487853 0.000000 0.000000 0.000000 
-2674.344482 721.208069 1108.711060 6.730654 -0.531884 0.731447 5.797713 0.129314 -3.160174 5.965476 -0.454010 0.919314 5.865211 0.062644 -0.964626 -1.152883 4.266505 4.834576 0.000000 0.000000 0.000000 -5.012543 13.020344 -1.140616 -1.049249 10.757160 3.908885 0.652720 -19.837854 3.580466 0.000000 0.000000 0.000000 2.775144 0.392110 7.097479 4.099976 1.564628 22.883277 170.204255 -58.100553 125.421323 0.000000 0.000000 0.000000 -0.407552 -3.789207 0.624608 -2.504840 30.365702 0.429543 1.583871 -6.422714 -0.367915 0.000000 0.000000 0.000000 -1.146017 -4.834808 0.658662 1.080008 31.364017 2.741834 1.270204 0.194364 0.479452 0.000000 0.000000 0.000000 
-2661.541748 719.814331 1109.036011 8.351920 -0.263991 0.486731 5.816240 -0.375903 -2.761443 5.950852 -0.330947 0.819869 5.853517 -0.055878 -0.926404 -1.321718 4.426234 5.301744 0.000000 0.000000 0.000000 -5.229578 13.365272 -1.157270 -0.952589 11.039953 4.180198 0.653696 -18.993524 3.034334 0.000000 0.000000 0.000000 2.762520 0.026631 7.134416 4.824048 0.767426 22.991463 169.168465 -57.743593 122.320678 0.000000 0.000000 0.000000 -0.589982 -3.530232 1.063783 -2.672426 30.883753 0.380153 1.845707 -5.655164 -0.168008 0.000000 0.000000 0.000000 -1.753363 -5.705212 1.113382 0.655745 33.222502 2.668017 1.187822 0.533478 0.454613 0.000000 0.000000 0.000000 
